<svg width="52" height="56" viewBox="0 0 52 56" fill="none" xmlns="http://www.w3.org/2000/svg">
<path d="M25.6067 26.3759C26.023 26.7871 26.023 27.4244 25.6067 27.8355L9.55687 43.6858C9.34871 43.8913 9.07809 43.9941 8.82829 43.9941C8.57848 43.9941 8.28705 43.8913 8.0997 43.6858C7.68336 43.2746 7.68336 42.6373 8.0997 42.2261L24.1495 26.3759C24.5242 25.9648 25.1903 25.9648 25.6067 26.3759ZM51.9816 8.34655C51.8983 10.2996 51.5236 12.1498 50.8991 13.5683C50.5869 14.3084 50.233 14.8634 49.8791 15.2746C49.8375 15.3568 49.775 15.4391 49.7126 15.5007L37.8678 27.1982H37.8886C38.5131 29.0485 38.0343 30.0558 37.5139 30.5903L15.4064 52.464H15.3648L12.4504 55.2805L12.4296 55.301L12.4088 55.3216C12.0965 55.63 11.5137 56 10.5561 56C9.97321 56 9.22381 55.8561 8.32868 55.4655C6.85068 54.8282 5.24779 53.6975 3.79061 52.2584C2.33343 50.8194 1.1885 49.2364 0.54318 47.7768C-0.497662 45.4126 0.189293 44.2408 0.688898 43.7474L0.709715 43.7269L0.730531 43.7063L25.5234 19.2217C25.6483 18.975 25.8148 18.7695 26.0022 18.5844C26.4393 18.1733 27.043 17.9677 27.73 17.9677C28.1255 17.9677 28.5418 18.0294 28.9998 18.1733L46.0072 1.4185C46.6317 0.534508 47.4227 0 48.3387 0C48.3803 0 48.4011 0 48.4427 0C49.0464 0.020558 49.6085 0.287812 50.0873 0.760646C51.3987 2.07636 52.1273 4.97504 51.9816 8.34655ZM46.2362 8.09985C46.1113 11.0808 46.7774 13.4244 47.5268 14.1645C47.6309 14.2673 47.735 14.37 47.7974 14.37C47.8391 14.37 47.9015 14.3495 47.964 14.3084L48.068 14.2056C48.1513 14.0822 48.2554 13.9794 48.3803 13.8972C48.5676 13.6505 48.7758 13.301 48.984 12.8076C49.5044 11.6153 49.8167 9.99119 49.8999 8.28488C50.0248 5.30397 49.3587 2.98091 48.6093 2.24082C48.5052 2.13803 48.4011 2.0558 48.3387 2.0558C47.7974 2.0558 46.4027 4.17328 46.2362 8.09985ZM44.1545 8.01762C44.1753 7.31865 44.2586 6.61968 44.3626 5.94126L29.999 20.1263L28.4169 21.6887C28.9374 22.8194 29.8117 24.0734 30.8733 25.2452C31.935 26.3759 33.1007 27.3216 34.1624 27.9383L46.3611 15.8913C46.2362 15.8091 46.1321 15.7063 46.028 15.6035C44.7373 14.2673 44.0088 11.3686 44.1545 8.01762ZM34.0999 31.022C32.393 30.467 30.457 29.1512 28.8541 27.5477C27.2304 25.9442 25.8981 24.0323 25.336 22.3671L5.08125 42.37C4.70655 42.7401 5.33106 45.1659 8.18296 47.9824C11.0349 50.7988 13.4913 51.4156 13.866 51.0455L34.0999 31.022ZM11.0349 53.7797L11.9508 52.8752C10.2438 52.3201 8.30786 51.0044 6.70497 49.4009C5.08125 47.7974 3.74897 45.8855 3.18692 44.2203L2.27098 45.1248C2.22934 45.1659 2.18771 45.207 2.14608 45.2482C2.04199 45.3715 1.97954 45.9471 2.43751 46.9956C2.95793 48.188 3.97796 49.5859 5.24779 50.8399C6.4968 52.0734 7.93316 53.1013 9.14054 53.6153C10.2022 54.0675 10.7851 54.0059 10.91 53.9031C10.9516 53.862 10.9932 53.8209 11.0349 53.7797Z" fill="#CE4A87"/>
</svg>
