<svg width="52" height="66" viewBox="0 0 52 66" fill="none" xmlns="http://www.w3.org/2000/svg">
<path d="M26 0C11.6642 0 0 14.8038 0 33C0 51.1962 11.6642 66 26 66C40.3358 66 52 51.1962 52 33C52 14.8038 40.3358 0 26 0ZM26 2.2C39.1419 2.2 49.8333 16.0171 49.8333 33C49.8333 49.9829 39.1419 63.8 26 63.8C12.8581 63.8 2.16667 49.9829 2.16667 33C2.16667 16.0171 12.8581 2.2 26 2.2ZM26 4.4C14.053 4.4 4.33333 17.2304 4.33333 33C4.33333 48.7696 14.053 61.6 26 61.6C37.947 61.6 47.6667 48.7696 47.6667 33C47.6667 17.2304 37.947 4.4 26 4.4ZM26 6.6C36.7521 6.6 45.5 18.4437 45.5 33C45.5 47.5563 36.7521 59.4 26 59.4C15.2479 59.4 6.5 47.5563 6.5 33C6.5 18.4437 15.2479 6.6 26 6.6ZM30.6095 17.9147L15.3775 33.4799L16.9112 35.0338L32.1432 19.4686L30.6095 17.9147ZM36.6088 20.6725L13.8593 43.7717L15.3912 45.3277L38.1407 22.228L36.6088 20.6725ZM35.0888 30.9662L19.8568 46.5317L21.3905 48.0855L36.6225 32.5201L35.0888 30.9662Z" fill="#CE4A87"/>
</svg>
