<svg width="52" height="58" viewBox="0 0 52 58" fill="none" xmlns="http://www.w3.org/2000/svg">
<path d="M25.9988 8.72215C27.2354 8.72215 28.4441 8.8414 29.619 9.0589C30.0852 8.2438 30.6326 7.48156 31.2526 6.78436C29.5668 6.37783 27.8079 6.16101 25.9988 6.16101C24.1898 6.16101 22.4309 6.37783 20.7451 6.78436C21.3651 7.48156 21.9125 8.2438 22.3787 9.0589C23.5536 8.8414 24.7623 8.72215 25.9988 8.72215Z" fill="#CE4A87"/>
<path d="M6.14684 28.5737C6.14684 28.5601 6.14751 28.5465 6.14819 28.533C5.25992 28.2213 4.41231 27.8222 3.62025 27.3412C3.59789 27.7491 3.58569 28.1603 3.58569 28.5737C3.58569 35.8546 7.07576 42.3347 12.4704 46.4312C12.4758 45.3918 12.6012 44.3809 12.8282 43.41C8.73373 39.7709 6.14684 34.4697 6.14684 28.5737Z" fill="#CE4A87"/>
<path d="M45.8499 28.533C45.8499 28.5465 45.8513 28.5601 45.8513 28.5737C45.8513 34.4697 43.2644 39.7709 39.1699 43.41C39.3976 44.3816 39.5222 45.3918 39.5277 46.4312C44.9223 42.3347 48.4124 35.8546 48.4124 28.5737C48.4124 28.1603 48.4002 27.7491 48.3778 27.3412C47.5858 27.8222 46.7382 28.2213 45.8499 28.533Z" fill="#CE4A87"/>
<path d="M19.7039 37.0058C19.7039 40.4613 22.5157 43.2725 25.9712 43.2725C29.4267 43.2725 32.2385 40.4613 32.2385 37.0058C32.2385 33.5503 29.4274 30.7391 25.9712 30.7391C22.5157 30.7391 19.7039 33.5503 19.7039 37.0058ZM29.8807 37.0058C29.8807 39.1767 28.1143 40.9424 25.9434 40.9424C23.7726 40.9424 22.0062 39.176 22.0062 37.0051C22.0062 34.8343 23.7726 33.0679 25.9434 33.0679C28.1143 33.0679 29.8807 34.8349 29.8807 37.0058Z" fill="#CE4A87"/>
<path d="M33.5762 43.0604C33.3147 43.0604 33.0667 43.1444 32.8634 43.3016C32.3763 43.6668 32.2651 44.3261 32.6039 44.8776C33.6772 46.5281 34.2707 49.821 34.2707 51.4661V51.773C34.2707 53.3524 32.6331 54.7902 30.8355 54.7902H21.303C19.6966 54.7902 17.7561 53.4445 17.7561 51.773C17.7561 49.9389 18.353 46.5254 19.4757 44.8816C19.8212 44.3626 19.7088 43.6688 19.223 43.305C19.0102 43.141 18.7466 43.0509 18.4804 43.0509C18.0887 43.0509 17.7303 43.2447 17.5264 43.5625C16.1943 45.5463 15.3982 49.2952 15.3982 51.7737C15.3982 54.8498 18.5156 57.1487 21.303 57.1487H30.8348C33.9062 57.1487 36.6001 54.637 36.6001 51.7737V51.4668C36.6001 49.1868 35.8196 45.5287 34.5593 43.597C34.3439 43.2603 33.9766 43.0604 33.5762 43.0604Z" fill="#CE4A87"/>
<path d="M10.5725 12.534C14.028 12.534 16.8399 9.72286 16.8399 6.26667C16.8399 2.81116 14.0287 0 10.5725 0C7.11633 0 4.30518 2.81116 4.30518 6.26735C4.30585 9.72285 7.11701 12.534 10.5725 12.534ZM10.5447 2.3301C12.7156 2.3301 14.482 4.09647 14.482 6.26735C14.482 8.43822 12.7156 10.2046 10.5447 10.2046C8.37387 10.2046 6.60749 8.43822 6.60749 6.26735C6.60749 4.09647 8.37387 2.3301 10.5447 2.3301Z" fill="#CE4A87"/>
<path d="M15.436 26.4088C18.5073 26.4088 21.2012 23.8972 21.2012 21.0338V20.7276C21.2012 18.4476 20.4207 14.7895 19.1611 12.8578C18.9457 12.5224 18.5778 12.3219 18.1773 12.3219C17.9158 12.3219 17.6678 12.4059 17.4646 12.5631C16.9774 12.9283 16.8663 13.5882 17.2057 14.1391C18.279 15.7903 18.8725 19.0825 18.8725 20.7276V21.0338C18.8725 22.6132 17.2349 24.051 15.4373 24.051H5.90418C4.2977 24.051 2.3572 22.7053 2.3572 21.0338C2.3572 19.1997 2.95412 15.7862 4.07682 14.1425C4.42305 13.6235 4.3099 12.9296 3.8241 12.5651C3.61135 12.4011 3.34778 12.311 3.08218 12.311C2.69055 12.311 2.33213 12.5048 2.12819 12.8226C0.795445 14.8071 0 18.5553 0 21.0331C0 24.1092 3.11741 26.4082 5.90486 26.4082H15.436V26.4088Z" fill="#CE4A87"/>
<path d="M41.3699 12.534C44.8254 12.534 47.6372 9.72286 47.6372 6.26667C47.6372 2.81116 44.8261 0 41.3699 0C37.9137 0 35.1025 2.81116 35.1025 6.26735C35.1032 9.72285 37.9144 12.534 41.3699 12.534ZM41.3421 2.3301C43.513 2.3301 45.2794 4.09647 45.2794 6.26735C45.2794 8.43822 43.513 10.2046 41.3421 10.2046C39.1712 10.2046 37.4049 8.43822 37.4049 6.26735C37.4049 4.09647 39.1712 2.3301 41.3421 2.3301Z" fill="#CE4A87"/>
<path d="M49.9579 12.8572C49.7424 12.5218 49.3745 12.3213 48.9741 12.3213C48.7125 12.3213 48.4646 12.4053 48.2613 12.5625C47.7735 12.9277 47.663 13.5876 48.0025 14.1385C49.0757 15.789 49.6692 19.0819 49.6692 20.727V21.0332C49.6692 22.6126 48.0316 24.0504 46.2341 24.0504H36.7016C35.0951 24.0504 33.1553 22.7047 33.1553 21.0332C33.1553 19.1991 33.7522 15.7849 34.8749 14.1418C35.2211 13.6228 35.108 12.929 34.6222 12.5645C34.4094 12.4012 34.1459 12.3104 33.8803 12.3104C33.4887 12.3104 33.1302 12.5042 32.9263 12.822C31.5942 14.8065 30.7981 18.5547 30.7981 21.0325C30.7981 24.1086 33.9155 26.4075 36.7029 26.4075H46.2347C49.3061 26.4075 52 23.8959 52 21.0325V20.7276C51.9987 18.4477 51.2181 14.7896 49.9579 12.8572Z" fill="#CE4A87"/>
</svg>
