<svg width="98" height="34" viewBox="0 0 98 34" fill="none" xmlns="http://www.w3.org/2000/svg">
<path d="M59.8082 17.4831C59.7527 17.9581 59.5769 18.3252 59.2807 18.5844C58.9866 18.8414 58.5948 18.97 58.1054 18.97C57.5748 18.97 57.1491 18.7797 56.8282 18.3993C56.5095 18.0188 56.3501 17.5098 56.3501 16.8722V16.4404C56.3501 16.0229 56.4241 15.6558 56.5722 15.3391C56.7223 15.0223 56.9341 14.7797 57.2077 14.611C57.4812 14.4403 57.7979 14.355 58.1578 14.355C58.6349 14.355 59.0175 14.4887 59.3054 14.756C59.5933 15.0213 59.7609 15.3894 59.8082 15.8604H59.2128C59.1614 15.5026 59.0493 15.2434 58.8766 15.083C58.7059 14.9226 58.4663 14.8424 58.1578 14.8424C57.7794 14.8424 57.4822 14.9822 57.2663 15.2619C57.0524 15.5416 56.9454 15.9396 56.9454 16.4558V16.8908C56.9454 17.3782 57.0473 17.7658 57.2509 18.0538C57.4545 18.3417 57.7393 18.4856 58.1054 18.4856C58.4344 18.4856 58.6864 18.4116 58.8612 18.2635C59.038 18.1134 59.1553 17.8532 59.2128 17.4831H59.8082Z" fill="#828282"/>
<path d="M65.7006 18.4239H67.8292V18.9083H65.1052V14.4167H65.7006V18.4239Z" fill="#828282"/>
<path d="M73.6259 18.9083H73.0336V14.4167H73.6259V18.9083Z" fill="#828282"/>
<path d="M82.6494 18.9083H82.0541L79.7928 15.447V18.9083H79.1975V14.4167H79.7928L82.0602 17.8933V14.4167H82.6494V18.9083Z" fill="#828282"/>
<path d="M88.8225 18.9083H88.2302V14.4167H88.8225V18.9083Z" fill="#828282"/>
<path d="M97.698 17.4831C97.6425 17.9581 97.4666 18.3252 97.1705 18.5844C96.8764 18.8414 96.4846 18.97 95.9951 18.97C95.4646 18.97 95.0388 18.7797 94.718 18.3993C94.3992 18.0188 94.2398 17.5098 94.2398 16.8722V16.4404C94.2398 16.0229 94.3139 15.6558 94.462 15.3391C94.6121 15.0223 94.8239 14.7797 95.0974 14.611C95.371 14.4403 95.6877 14.355 96.0476 14.355C96.5247 14.355 96.9072 14.4887 97.1952 14.756C97.4831 15.0213 97.6507 15.3894 97.698 15.8604H97.1026C97.0512 15.5026 96.9391 15.2434 96.7664 15.083C96.5957 14.9226 96.3561 14.8424 96.0476 14.8424C95.6692 14.8424 95.372 14.9822 95.1561 15.2619C94.9422 15.5416 94.8352 15.9396 94.8352 16.4558V16.8908C94.8352 17.3782 94.937 17.7658 95.1406 18.0538C95.3442 18.3417 95.6291 18.4856 95.9951 18.4856C96.3242 18.4856 96.5761 18.4116 96.7509 18.2635C96.9278 18.1134 97.045 17.8532 97.1026 17.4831H97.698Z" fill="#828282"/>
<path d="M29.8463 33.5006C20.7097 33.5006 13.2758 26.0667 13.2758 16.9301C13.2758 7.79347 20.7097 0.354492 29.8463 0.354492C38.9829 0.354492 46.4168 7.78731 46.4168 16.925C46.4168 26.0626 38.9829 33.5006 29.8463 33.5006ZM29.8463 4.0077C27.2905 4.0077 24.7921 4.76563 22.6672 6.18563C20.5422 7.60563 18.886 9.62391 17.9081 11.9852C16.9303 14.3465 16.6746 16.9448 17.1735 19.4514C17.6724 21.958 18.9035 24.2604 20.711 26.0673C22.5185 27.8742 24.8212 29.1045 27.328 29.6026C29.8348 30.1008 32.4329 29.8443 34.7939 28.8657C37.1549 27.8871 39.1727 26.2302 40.592 24.1048C42.0113 21.9794 42.7685 19.4807 42.7677 16.925C42.763 13.4998 41.4001 10.2163 38.9777 7.79473C36.5554 5.37316 33.2715 4.01124 29.8463 4.0077Z" fill="black"/>
<path d="M4.4578 15.0493H0.809731V33.3421H4.4578V15.0493Z" fill="black"/>
<path d="M5.26965 2.6338C5.26986 3.15497 5.1155 3.66449 4.8261 4.09792C4.53671 4.53135 4.12528 4.86922 3.64384 5.0688C3.16241 5.26839 2.6326 5.32071 2.12142 5.21916C1.61025 5.11761 1.14067 4.86675 0.772078 4.4983C0.403487 4.12986 0.152441 3.66038 0.0506925 3.14924C-0.0510564 2.6381 0.00106206 2.10828 0.200456 1.62676C0.39985 1.14525 0.737562 0.733685 1.17088 0.444121C1.6042 0.154556 2.11366 3.96377e-08 2.63482 0C3.33344 -5.31345e-08 4.00347 0.277456 4.49757 0.771361C4.99166 1.26527 5.26938 1.93518 5.26965 2.6338Z" fill="black"/>
</svg>
