<svg width="13" height="17" viewBox="0 0 13 17" fill="none" xmlns="http://www.w3.org/2000/svg">
<path d="M12.1862 9.20682H4.22334C4.79206 8.93405 5.40826 8.72881 6.04444 8.51951C7.1955 8.14107 8.38013 7.7489 9.34373 6.89413H12.1862C12.4167 6.89413 12.6034 6.69702 12.6034 6.45381C12.6034 6.21061 12.4167 6.0135 12.1862 6.0135H10.0935C10.5875 5.19689 10.7095 4.19535 10.4105 3.17312C9.9685 1.6616 8.70432 0.3981 7.33616 0.100543C6.06595 -0.17603 4.64971 0.125999 3.5495 0.907903C2.58719 1.59177 1.9494 2.58592 1.75332 3.70769C1.71159 3.94677 1.86138 4.17656 2.08811 4.22059C2.31434 4.26324 2.53226 4.10673 2.57415 3.8673C2.72899 2.98048 3.24096 2.18895 4.01566 1.63855C4.93364 0.98599 6.11094 0.73212 7.16795 0.963286C8.2512 1.19858 9.25687 2.2144 9.61317 3.43284C9.77421 3.98323 9.92254 5.03896 9.10855 5.92647C9.07992 5.95768 9.04818 5.98348 9.01888 6.0135H0.417263C0.18679 6.0135 0 6.21061 0 6.45381C0 6.69702 0.18679 6.89413 0.417263 6.89413H7.80709C7.18747 7.21669 6.50414 7.44586 5.7962 7.67879C4.69043 8.04258 3.5524 8.4193 2.60585 9.20682H0.417263C0.18679 9.20682 0 9.40393 0 9.64713C0 9.89034 0.18679 10.0874 0.417263 10.0874H1.8175C1.15354 11.1728 1.13525 12.673 1.82732 13.9691C2.72296 15.6461 4.46226 16.3103 6.13131 16.3103C6.71157 16.3103 7.28335 16.2302 7.80819 16.0843C10.0066 15.4731 11.3699 13.8484 11.3663 11.8446C11.366 11.6014 11.1792 11.405 10.9491 11.405C10.9487 11.405 10.9484 11.405 10.9484 11.405C10.7179 11.4053 10.5315 11.6031 10.5318 11.846C10.5354 13.7403 9.01727 14.8374 7.59564 15.2326C5.80598 15.7297 3.49979 15.3073 2.55427 13.537C2.0366 12.5673 1.90115 11.0985 2.82728 10.1655C2.85501 10.1376 2.88539 10.1144 2.91369 10.0874H12.1862C12.4167 10.0874 12.6034 9.89034 12.6034 9.64713C12.6034 9.40393 12.4167 9.20682 12.1862 9.20682Z" fill="#1D1C1A"/>
</svg>
