<svg width="19" height="19" viewBox="0 0 19 19" fill="none" xmlns="http://www.w3.org/2000/svg">
<path d="M9.49332 19C12.0302 19 14.4069 18.0126 16.2228 16.2247C18.0386 14.4368 19 12.0351 19 9.5C19 6.96489 18.0119 4.58989 16.2228 2.77528C14.4336 0.960674 12.0302 0 9.49332 0C6.95643 0 4.57976 0.98736 2.76388 2.77528C-0.921293 6.48455 -0.921293 12.5154 2.76388 16.2247C4.57976 18.0126 6.95643 19 9.49332 19ZM3.5383 3.54916C6.82291 0.266854 12.1637 0.266854 15.4483 3.54916C17.0506 5.15028 17.9051 7.25843 17.9051 9.5C17.9051 11.7416 17.0239 13.8764 15.4483 15.4508C12.1637 18.7331 6.82291 18.7331 3.5383 15.4508C0.25369 12.1685 0.25369 6.83146 3.5383 3.54916Z" fill="black"/>
<path d="M8.5 11H12.5C12.775 11 13 10.775 13 10.5C13 10.225 12.775 10 12.5 10H9V5.5C9 5.225 8.775 5 8.5 5C8.225 5 8 5.225 8 5.5V10.5C8 10.775 8.225 11 8.5 11Z" fill="black"/>
</svg>
