<svg width="25" height="25" viewBox="0 0 25 25" fill="none" xmlns="http://www.w3.org/2000/svg">
<path fill-rule="evenodd" clip-rule="evenodd" d="M7.30692 1.58131C7.05782 0.791611 6.80872 0.159854 5.97839 0.0808839L4.40076 0.00191422C2.74009 -0.0770555 0 2.29204 0 6.24052C0.0830332 13.1109 10.8773 24.3246 18.0182 24.9563C22.2529 25.3512 24.9099 22.9821 24.993 21.3237V19.9023C25.076 19.1126 24.4117 18.7967 23.5814 18.4808C22.0038 17.928 20.4262 17.2173 18.8485 16.6645C18.1843 16.4276 17.603 16.8225 17.1879 17.0594C16.6066 17.5332 16.1915 17.8491 15.6933 18.4019C15.2781 18.7177 14.8629 18.8757 14.4478 18.4808C10.8773 16.7435 7.97118 13.7426 6.47659 10.268C6.14445 9.79416 6.31052 9.39931 6.72569 9.08343C7.30692 8.60961 7.72208 8.21476 8.22028 7.74094C8.55241 7.42506 8.96758 6.87228 8.80151 6.24052C8.30332 4.7401 7.80512 3.08173 7.30692 1.58131Z" fill="#CE4A87"/>
</svg>
