<svg width="25" height="25" viewBox="0 0 25 25" fill="none" xmlns="http://www.w3.org/2000/svg">
<path d="M21.2917 0H3.70833C2.72567 0.00274873 1.78403 0.39433 1.08918 1.08918C0.39433 1.78403 0.00274873 2.72567 0 3.70833L0 21.2917C0.00274873 22.2743 0.39433 23.216 1.08918 23.9108C1.78403 24.6057 2.72567 24.9973 3.70833 25H21.2917C22.2743 24.9973 23.216 24.6057 23.9108 23.9108C24.6057 23.216 24.9973 22.2743 25 21.2917V3.70833C24.9973 2.72567 24.6057 1.78403 23.9108 1.08918C23.216 0.39433 22.2743 0.00274873 21.2917 0V0ZM22.9167 21.2917C22.9167 21.7226 22.7455 22.136 22.4407 22.4407C22.136 22.7455 21.7226 22.9167 21.2917 22.9167H3.70833C3.27736 22.9167 2.86403 22.7455 2.55928 22.4407C2.25454 22.136 2.08333 21.7226 2.08333 21.2917V3.70833C2.08333 3.27736 2.25454 2.86403 2.55928 2.55928C2.86403 2.25454 3.27736 2.08333 3.70833 2.08333H21.2917C21.7226 2.08333 22.136 2.25454 22.4407 2.55928C22.7455 2.86403 22.9167 3.27736 22.9167 3.70833V21.2917Z" fill="#CE4A87"/>
<path d="M12.5 6C11.2144 6 9.95772 6.38122 8.8888 7.09545C7.81988 7.80968 6.98676 8.82484 6.49479 10.0126C6.00282 11.2003 5.87409 12.5072 6.1249 13.7681C6.3757 15.029 6.99477 16.1872 7.90381 17.0962C8.81285 18.0052 9.97104 18.6243 11.2319 18.8751C12.4928 19.1259 13.7997 18.9972 14.9874 18.5052C16.1752 18.0132 17.1903 17.1801 17.9046 16.1112C18.6188 15.0423 19 13.7856 19 12.5C19 10.7761 18.3152 9.12279 17.0962 7.90381C15.8772 6.68482 14.2239 6 12.5 6ZM12.5 16.8333C11.6429 16.8333 10.8051 16.5792 10.0925 16.103C9.37992 15.6269 8.8245 14.9501 8.49652 14.1583C8.16854 13.3665 8.08273 12.4952 8.24993 11.6546C8.41714 10.814 8.82985 10.0419 9.43587 9.43587C10.0419 8.82984 10.814 8.41713 11.6546 8.24993C12.4952 8.08273 13.3665 8.16854 14.1583 8.49652C14.9501 8.8245 15.6269 9.37992 16.103 10.0925C16.5792 10.8051 16.8333 11.6429 16.8333 12.5C16.8333 13.6493 16.3768 14.7515 15.5641 15.5641C14.7515 16.3768 13.6493 16.8333 12.5 16.8333Z" fill="#CE4A87"/>
<path d="M19.5 7C20.3284 7 21 6.32843 21 5.5C21 4.67157 20.3284 4 19.5 4C18.6716 4 18 4.67157 18 5.5C18 6.32843 18.6716 7 19.5 7Z" fill="#CE4A87"/>
</svg>
